<?xml version="1.0" encoding="utf-8"?>
<!-- Generator: Adobe Illustrator 28.3.0, SVG Export Plug-In . SVG Version: 6.00 Build 0)  -->
<svg version="1.1" id="Layer_1" xmlns="http://www.w3.org/2000/svg" xmlns:xlink="http://www.w3.org/1999/xlink" x="0px" y="0px"
	 viewBox="0 0 6912 1559.4" style="enable-background:new 0 0 6912 1559.4;" xml:space="preserve">
<style type="text/css">
	.st0{fill:#015486;}
	.st1{fill:#3B3B3C;}
</style>
<g>
	<g transform="translate(54.272603, 1508.977167)">
		<g>
			<path class="st0" d="M505.7-356.2c194.3,0,331.7-141.1,331.7-342.8c0-199.2-137.4-341.6-331.7-341.6
				c-94.1,0-174.5,33.4-232.7,91.6l-21-74.3H112.2V-126h188.1v-298.3C354.7-381,425.3-356.2,505.7-356.2z M292.8-699.1
				c0-105.2,74.3-180.7,179.4-180.7c106.4,0,179.5,75.5,179.5,180.7c0,106.4-73,180.7-179.5,180.7
				C367.1-518.4,292.8-592.6,292.8-699.1z"/>
		</g>
	</g>
</g>
<g>
	<g transform="translate(667.726547, 1508.977167)">
		<g>
			<path class="st0" d="M575.3-356.2c85.4,0,162.1-29.7,214.1-90.3l19.8,73H949v-649.7H760.9v339.1c0,102.7-55.7,165.8-141.1,165.8
				c-79.2,0-127.5-55.7-127.5-151v-354H304.3v372.5C304.3-470.1,407-356.2,575.3-356.2z"/>
		</g>
	</g>
</g>
<g>
	<g transform="translate(1245.913604, 1508.977167)">
		<g>
			<path class="st0" d="M509.4-373.6h188.1v-287.1c0-139.9,65.6-191.8,173.3-191.8h71.8v-170.8H872c-95.3,0-155.9,26-198,86.6
				l-24.8-86.6H509.4V-373.6z"/>
		</g>
	</g>
</g>
<g>
	<g transform="translate(1635.700914, 1508.977167)">
		<g>
			<path class="st0" d="M946.2-356.2c159.6,0,285.9-81.7,342.8-219.1h-190.6c-30.9,43.3-86.6,68.1-148.5,68.1
				c-85.4,0-152.2-48.3-169.5-137.4h521c11.1-237.6-129.9-396-352.7-396c-210.4,0-355.2,139.8-355.2,341.6
				C593.5-496.1,737.1-356.2,946.2-356.2z M781.6-763.4c21-79.2,85.4-127.5,168.3-127.5c86.6,0,148.5,48.3,169.5,127.5L781.6-763.4
				L781.6-763.4z"/>
		</g>
	</g>
</g>
<g>
	<g transform="translate(2238.258949, 1508.977167)">
		<g>
			<path class="st1" d="M1233.7-356.2c194.3,0,331.7-141.1,331.7-342.8c0-199.2-137.4-341.6-331.7-341.6
				c-80.4,0-151,24.8-205.4,68.1v-316.8H840.1v915.8H980l21-74.3C1059.2-389.6,1139.6-356.2,1233.7-356.2z M1020.8-699.1
				c0-105.2,74.3-180.7,179.5-180.7c106.4,0,179.4,75.5,179.4,180.7c0,106.4-73,180.7-179.4,180.7
				C1095.1-518.4,1020.8-592.6,1020.8-699.1z"/>
		</g>
	</g>
</g>
<g>
	<g transform="translate(2851.712893, 1508.977167)">
		<g>
			<path class="st1" d="M1044.6-373.6h188.1v-915.8h-188.1V-373.6z"/>
		</g>
	</g>
</g>
<g>
	<g transform="translate(3096.720364, 1508.977167)">
		<g>
			<path class="st1" d="M1342.9-361.2c96.5,0,175.7-30.9,231.4-87.9l21,75.5h139.8v-391.1c0-172-116.3-276-310.6-276
				c-165.8,0-274.7,79.2-298.3,220.3H1307c11.1-45.8,58.2-76.7,118.8-76.7c74.3,0,125,42.1,125,106.4v29.7h-235.1
				c-134.9,0-221.5,78-221.5,198C1094.1-437.9,1189.4-361.2,1342.9-361.2z M1279.8-570.3c0-44.6,37.1-73,94.1-73H1552
				c-3.7,87.9-71.8,147.3-165.8,147.3C1321.8-496.1,1279.8-525.8,1279.8-570.3z"/>
		</g>
	</g>
</g>
<g>
	<g transform="translate(3647.993084, 1508.977167)">
		<g>
			<path class="st1" d="M1263-373.6h571.8v-154.7h-324.2l316.8-367.6v-127.5h-553.2v153.5h309.4L1263-502.3L1263-373.6L1263-373.6z"
				/>
		</g>
	</g>
</g>
<g>
	<g transform="translate(4110.170596, 1508.977167)">
		<g>
			<path class="st1" d="M1783.4-356.2c215.3,0,363.8-139.9,363.8-342.8c0-201.7-148.5-341.6-363.8-341.6
				c-216.6,0-365.1,139.8-365.1,341.6C1418.3-496.1,1566.8-356.2,1783.4-356.2z M1604-699.1c0-106.4,74.3-180.7,179.4-180.7
				c105.2,0,178.2,74.3,178.2,180.7c0,106.4-73,180.7-178.2,180.7C1678.2-518.4,1604-592.6,1604-699.1z"/>
		</g>
	</g>
</g>
<g>
	<g transform="translate(4692.070036, 1508.977167)">
		<g>
			<path class="st1" d="M1658.1-373.6h188.1v-287.1c0-139.9,65.6-191.8,173.3-191.8h71.8v-170.8h-70.5c-95.3,0-155.9,26-198,86.6
				l-24.8-86.6h-139.8L1658.1-373.6L1658.1-373.6z"/>
		</g>
	</g>
</g>
</svg>
