<svg xmlns="http://www.w3.org/2000/svg" xmlns:xlink="http://www.w3.org/1999/xlink" width="6912" viewBox="1000 -6800 5000 8600" height="3000" version="1.0">
	<defs>
		<g/>
		<clipPath id="ef61d8926a">
			<path d="M 2830 2018.730469 L 3085 2018.730469 L 3085 2591 L 2830 2591 Z M 2830 2018.730469 " clip-rule="nonzero"/>
		</clipPath>
	</defs>
	<path fill="#015486" d="M 1 0 L 5183 0 L 5183 2591 L 1 2591 Z M 1 0 " fill-opacity="1" fill-rule="nonzero"/>
	<g clip-path="url(#ef61d8926a)">
		<path fill="#015486" d="M 3015.160156 2130.375 C 3019.195312 2130.105469 3029.011719 2130.375 3036.390625 2129.246094 C 3012.996094 2120.839844 2982.761719 2125.066406 2959.464844 2125.066406 C 2934.765625 2125.066406 2910.3125 2124.550781 2885.957031 2127.597656 C 2907.972656 2132 2931.023438 2130.375 2953.535156 2130.375 C 2973.878906 2130.375 2994.890625 2131.949219 3015.160156 2130.375 Z M 3044.191406 2194.050781 C 3050.757812 2191.839844 3047.78125 2162.203125 3045.640625 2142.910156 C 3043.871094 2141.261719 3043.402344 2138.339844 3044.976562 2136.546875 C 3044.976562 2136.398438 3044.976562 2136.273438 3044.929688 2136.128906 C 3039.148438 2137.96875 3031.742188 2137.824219 3026.625 2138.414062 C 3005.445312 2141.089844 2983.597656 2139.566406 2962.21875 2139.566406 C 2931.8125 2139.566406 2899.832031 2142.738281 2870.679688 2133.054688 C 2869.546875 2150.871094 2868.195312 2192.207031 2873.1875 2193.855469 C 2899.386719 2202.578125 2926.351562 2201.941406 2953.632812 2201.941406 C 2984.457031 2201.941406 3014.644531 2204.054688 3044.191406 2194.050781 Z M 3038.804688 2212.851562 C 3040.820312 2211.523438 3046.578125 2207.445312 3046.429688 2203.636719 C 3019.515625 2216.710938 2981.433594 2211.476562 2953.632812 2211.476562 C 2937.003906 2211.476562 2919.316406 2213.046875 2902.929688 2210.148438 C 2894.195312 2208.648438 2878.328125 2208.132812 2869.054688 2203.121094 C 2868.316406 2207.078125 2874.492188 2211.449219 2876.582031 2212.851562 C 2876.953125 2213.148438 2877.296875 2213.417969 2877.542969 2213.738281 C 2903.25 2226.367188 2936.535156 2222.511719 2964.261719 2222.511719 C 2979.785156 2222.511719 2995.847656 2223.789062 3011.324219 2222.582031 C 3020.621094 2221.894531 3028.398438 2218.824219 3036.710938 2215.898438 C 3036.933594 2214.742188 3037.621094 2213.6875 3038.804688 2212.851562 Z M 3053.515625 2129.246094 C 3059.441406 2116.292969 3054.84375 2086.878906 3049.824219 2082.527344 C 3041.707031 2075.449219 3029.800781 2067.929688 3019.933594 2063.433594 C 3001.558594 2055.078125 2981.53125 2041.414062 2960.203125 2043.96875 C 2946.523438 2045.617188 2932.773438 2043.058594 2919.535156 2048.367188 C 2908.664062 2052.765625 2897.984375 2057.460938 2887.285156 2062.277344 C 2868.21875 2070.929688 2861.429688 2081.691406 2861.429688 2103.046875 C 2861.429688 2108.726562 2859.089844 2121.847656 2861.796875 2129 C 2861.847656 2128.089844 2861.945312 2127.132812 2862.019531 2126.222656 C 2862.214844 2124.503906 2863.175781 2123.371094 2864.332031 2122.636719 C 2864.871094 2122.09375 2865.5625 2121.578125 2866.519531 2121.40625 C 2900.371094 2114.597656 2934.074219 2115.875 2968.46875 2115.875 C 2993.414062 2115.875 3024.707031 2112.3125 3048.054688 2124.378906 C 3050.585938 2124.109375 3053.464844 2125.140625 3053.464844 2127.722656 C 3053.464844 2128.140625 3053.515625 2128.730469 3053.515625 2129.246094 Z M 3055.902344 2149.617188 C 3074.597656 2141.042969 3070.613281 2104.375 3068.078125 2087.984375 C 3066.0625 2075.230469 3048.324219 2058.148438 3037.03125 2051.90625 C 3011.152344 2037.679688 2976.980469 2024.605469 2947.015625 2027.921875 C 2912.378906 2031.753906 2883.078125 2041.632812 2856.113281 2064.441406 C 2841.625 2076.65625 2845.953125 2097.566406 2845.953125 2114.550781 C 2845.953125 2131.308594 2845.242188 2144.65625 2861.429688 2149.765625 C 2861.328125 2147.039062 2861.28125 2144.335938 2861.28125 2141.632812 C 2848.390625 2136.445312 2852.226562 2125.289062 2852.226562 2111.160156 C 2852.226562 2096.660156 2848.292969 2077.195312 2861.574219 2066.875 C 2889.988281 2044.65625 2929.007812 2032.910156 2964.800781 2034.558594 C 2993.144531 2035.910156 3030.683594 2053.652344 3052.261719 2072.476562 C 3066.453125 2084.863281 3066.207031 2099.09375 3064.214844 2116.984375 C 3063.15625 2126.394531 3062.9375 2137.183594 3054.890625 2142 C 3055.210938 2144.433594 3055.53125 2146.964844 3055.902344 2149.617188 Z M 3075.238281 2403.1875 C 3076.441406 2374.828125 3074.179688 2346.320312 3074.054688 2317.960938 C 3073.910156 2282.15625 3082.742188 2240.941406 3044.683594 2223.273438 C 3029.945312 2228.015625 3019.464844 2233.273438 3003.523438 2233.273438 C 2984.558594 2233.273438 2965.589844 2233.273438 2946.621094 2233.273438 C 2922.167969 2233.273438 2895.550781 2233.25 2873.238281 2222.191406 C 2832.078125 2239.246094 2841.722656 2281.394531 2841.304688 2317.960938 C 2841.035156 2346.222656 2838.328125 2374.953125 2840.125 2403.1875 C 2841.945312 2431.230469 2838.449219 2459.023438 2840.46875 2486.894531 C 2844.625 2543.761719 2843.691406 2600.847656 2844.304688 2657.863281 C 2844.578125 2680.054688 2835.472656 2734.957031 2860.050781 2745.328125 C 2886.59375 2756.558594 2913.484375 2763.316406 2942.414062 2763.90625 C 2943.25 2763.957031 2943.941406 2764.179688 2944.53125 2764.523438 C 2976.191406 2764.324219 3007.757812 2763.046875 3037.792969 2752.039062 C 3057.375 2744.910156 3072.089844 2739.308594 3070.933594 2714.167969 C 3070.316406 2701.09375 3070.734375 2687.945312 3070.882812 2674.871094 C 3071.523438 2615.128906 3069.949219 2554.992188 3074.277344 2495.394531 C 3076.492188 2464.675781 3073.957031 2434.03125 3075.238281 2403.1875 Z M 3083.601562 2301.347656 C 3083.601562 2371.707031 3086.285156 2442.238281 3082.125 2512.378906 C 3079.9375 2549.414062 3080.945312 2586.71875 3080.625 2623.753906 C 3080.304688 2658.40625 3078.78125 2693.105469 3081.585938 2727.609375 C 3083.234375 2747.441406 3054.203125 2756.019531 3040.277344 2760.886719 C 3008.25 2772.089844 2975.503906 2773.589844 2941.824219 2773.6875 C 2940.914062 2773.6875 2940.128906 2773.417969 2939.488281 2773 C 2912.523438 2772.089844 2886.375 2766.339844 2861.429688 2755.796875 C 2850.308594 2751.105469 2841.253906 2745.96875 2835.425781 2735.328125 C 2830.972656 2727.144531 2835.621094 2715.320312 2835.621094 2706.769531 C 2835.375 2636.558594 2836.976562 2565.460938 2831.929688 2495.394531 C 2830.457031 2475.515625 2833.261719 2456.273438 2832.769531 2436.539062 C 2832.347656 2419.800781 2830.136719 2403.042969 2830.601562 2386.304688 C 2831.390625 2356.152344 2831.019531 2326.046875 2831.019531 2296.015625 C 2831.019531 2260.675781 2832.941406 2231.503906 2865.609375 2215.605469 C 2860.101562 2210.050781 2856.804688 2202.777344 2862.4375 2195.917969 C 2859.804688 2188.71875 2862.019531 2177.808594 2862.019531 2171.6875 C 2862.019531 2167.65625 2861.894531 2163.578125 2861.75 2159.398438 C 2841.992188 2155.222656 2839.140625 2149.347656 2837.34375 2129.46875 C 2835.84375 2113.273438 2837.023438 2096.878906 2836.753906 2080.683594 C 2836.730469 2076.828125 2836.433594 2071.960938 2839.238281 2068.839844 C 2868.734375 2036.128906 2910.679688 2018.730469 2954.519531 2018.730469 C 2999.515625 2018.730469 3038.433594 2039.621094 3071.300781 2068.988281 C 3083.527344 2079.898438 3078.582031 2115.703125 3077.722656 2129.320312 C 3076.664062 2145.589844 3071.472656 2154.804688 3057.007812 2159.082031 C 3058.558594 2174.023438 3059.074219 2189.777344 3054.152344 2197.664062 C 3058.015625 2203.957031 3054.84375 2210.46875 3049.800781 2215.605469 C 3085.027344 2232.636719 3083.601562 2264.3125 3083.601562 2301.347656 " fill-opacity="1" fill-rule="nonzero"/>
	</g>
	<g fill="#ffffff" fill-opacity="1">
		<g transform="translate(54.272603, 1508.977167)">
			<g>
				<path d="M 365.710938 12.996094 C 511.4375 12.996094 614.464844 -92.820312 614.464844 -244.117188 C 614.464844 -393.554688 511.4375 -500.296875 365.710938 -500.296875 C 295.167969 -500.296875 234.832031 -475.238281 191.207031 -431.609375 L 175.429688 -487.304688 L 70.542969 -487.304688 L 70.542969 185.640625 L 211.628906 185.640625 L 211.628906 -38.054688 C 252.46875 -5.570312 305.375 12.996094 365.710938 12.996094 Z M 206.058594 -244.117188 C 206.058594 -323.011719 261.75 -379.632812 340.648438 -379.632812 C 420.472656 -379.632812 475.238281 -323.011719 475.238281 -244.117188 C 475.238281 -164.289062 420.472656 -108.597656 340.648438 -108.597656 C 261.75 -108.597656 206.058594 -164.289062 206.058594 -244.117188 Z M 206.058594 -244.117188 "/>
			</g>
		</g>
	</g>
	<g fill="#ffffff" fill-opacity="1">
		<g transform="translate(667.726547, 1508.977167)">
			<g>
				<path d="M 264.535156 12.996094 C 328.582031 12.996094 386.128906 -9.28125 425.113281 -54.761719 L 439.964844 0 L 544.851562 0 L 544.851562 -487.304688 L 403.765625 -487.304688 L 403.765625 -232.976562 C 403.765625 -155.9375 361.996094 -108.597656 297.949219 -108.597656 C 238.546875 -108.597656 202.347656 -150.367188 202.347656 -221.839844 L 202.347656 -487.304688 L 61.261719 -487.304688 L 61.261719 -207.914062 C 61.261719 -72.398438 138.300781 12.996094 264.535156 12.996094 Z M 264.535156 12.996094 "/>
			</g>
		</g>
	</g>
	<g fill="#ffffff" fill-opacity="1">
		<g transform="translate(1245.913604, 1508.977167)">
			<g>
				<path d="M 70.542969 0 L 211.628906 0 L 211.628906 -215.339844 C 211.628906 -320.226562 260.824219 -359.210938 341.574219 -359.210938 L 395.410156 -359.210938 L 395.410156 -487.304688 L 342.503906 -487.304688 C 271.035156 -487.304688 225.550781 -467.8125 193.992188 -422.328125 L 175.429688 -487.304688 L 70.542969 -487.304688 Z M 70.542969 0 "/>
			</g>
		</g>
	</g>
	<g fill="#ffffff" fill-opacity="1">
		<g transform="translate(1635.700914, 1508.977167)">
			<g>
				<path d="M 300.734375 12.996094 C 420.472656 12.996094 515.148438 -48.265625 557.847656 -151.296875 L 414.902344 -151.296875 C 391.699219 -118.808594 349.929688 -100.246094 303.519531 -100.246094 C 239.472656 -100.246094 189.351562 -136.445312 176.355469 -203.273438 L 567.128906 -203.273438 C 575.480469 -381.488281 469.667969 -500.296875 302.59375 -500.296875 C 144.796875 -500.296875 36.199219 -395.410156 36.199219 -244.117188 C 36.199219 -91.890625 143.871094 12.996094 300.734375 12.996094 Z M 177.285156 -292.382812 C 193.066406 -351.785156 241.332031 -387.984375 303.519531 -387.984375 C 368.492188 -387.984375 414.902344 -351.785156 430.683594 -292.382812 Z M 177.285156 -292.382812 "/>
			</g>
		</g>
	</g>
	<g fill="#8fd8ff" fill-opacity="1">
		<g transform="translate(2238.258949, 1508.977167)">
			<g>
				<path d="M 365.710938 12.996094 C 511.4375 12.996094 614.464844 -92.820312 614.464844 -244.117188 C 614.464844 -393.554688 511.4375 -500.296875 365.710938 -500.296875 C 305.375 -500.296875 252.46875 -481.734375 211.628906 -449.246094 L 211.628906 -686.863281 L 70.542969 -686.863281 L 70.542969 0 L 175.429688 0 L 191.207031 -55.691406 C 234.832031 -12.066406 295.167969 12.996094 365.710938 12.996094 Z M 206.058594 -244.117188 C 206.058594 -323.011719 261.75 -379.632812 340.648438 -379.632812 C 420.472656 -379.632812 475.238281 -323.011719 475.238281 -244.117188 C 475.238281 -164.289062 420.472656 -108.597656 340.648438 -108.597656 C 261.75 -108.597656 206.058594 -164.289062 206.058594 -244.117188 Z M 206.058594 -244.117188 "/>
			</g>
		</g>
	</g>
	<g fill="#8fd8ff" fill-opacity="1">
		<g transform="translate(2851.712893, 1508.977167)">
			<g>
				<path d="M 70.542969 0 L 211.628906 0 L 211.628906 -686.863281 L 70.542969 -686.863281 Z M 70.542969 0 "/>
			</g>
		</g>
	</g>
	<g fill="#8fd8ff" fill-opacity="1">
		<g transform="translate(3096.720364, 1508.977167)">
			<g>
				<path d="M 232.976562 9.28125 C 305.375 9.28125 364.78125 -13.921875 406.550781 -56.621094 L 422.328125 0 L 527.214844 0 L 527.214844 -293.308594 C 527.214844 -422.328125 439.964844 -500.296875 294.238281 -500.296875 C 169.859375 -500.296875 88.179688 -440.894531 70.542969 -335.078125 L 206.058594 -335.078125 C 214.414062 -369.421875 249.683594 -392.625 295.167969 -392.625 C 350.859375 -392.625 388.914062 -361.066406 388.914062 -312.800781 L 388.914062 -290.523438 L 212.558594 -290.523438 C 111.382812 -290.523438 46.410156 -232.050781 46.410156 -142.015625 C 46.410156 -48.265625 117.882812 9.28125 232.976562 9.28125 Z M 185.640625 -147.582031 C 185.640625 -181 213.484375 -202.347656 256.183594 -202.347656 L 389.84375 -202.347656 C 387.058594 -136.445312 336.007812 -91.890625 265.464844 -91.890625 C 217.199219 -91.890625 185.640625 -114.167969 185.640625 -147.582031 Z M 185.640625 -147.582031 "/>
			</g>
		</g>
	</g>
	<g fill="#8fd8ff" fill-opacity="1">
		<g transform="translate(3647.993084, 1508.977167)">
			<g>
				<path d="M 35.269531 0 L 464.097656 0 L 464.097656 -116.023438 L 220.910156 -116.023438 L 458.527344 -391.699219 L 458.527344 -487.304688 L 43.625 -487.304688 L 43.625 -372.207031 L 275.675781 -372.207031 L 35.269531 -96.53125 Z M 35.269531 0 "/>
			</g>
		</g>
	</g>
	<g fill="#8fd8ff" fill-opacity="1">
		<g transform="translate(4110.170596, 1508.977167)">
			<g>
				<path d="M 310.015625 12.996094 C 471.523438 12.996094 582.90625 -91.890625 582.90625 -244.117188 C 582.90625 -395.410156 471.523438 -500.296875 310.015625 -500.296875 C 147.582031 -500.296875 36.199219 -395.410156 36.199219 -244.117188 C 36.199219 -91.890625 147.582031 12.996094 310.015625 12.996094 Z M 175.429688 -244.117188 C 175.429688 -323.941406 231.121094 -379.632812 310.015625 -379.632812 C 388.914062 -379.632812 443.675781 -323.941406 443.675781 -244.117188 C 443.675781 -164.289062 388.914062 -108.597656 310.015625 -108.597656 C 231.121094 -108.597656 175.429688 -164.289062 175.429688 -244.117188 Z M 175.429688 -244.117188 "/>
			</g>
		</g>
	</g>
	<g fill="#8fd8ff" fill-opacity="1">
		<g transform="translate(4692.070036, 1508.977167)">
			<g>
				<path d="M 70.542969 0 L 211.628906 0 L 211.628906 -215.339844 C 211.628906 -320.226562 260.824219 -359.210938 341.574219 -359.210938 L 395.410156 -359.210938 L 395.410156 -487.304688 L 342.503906 -487.304688 C 271.035156 -487.304688 225.550781 -467.8125 193.992188 -422.328125 L 175.429688 -487.304688 L 70.542969 -487.304688 Z M 70.542969 0 "/>
			</g>
		</g>
	</g>
</svg>
