<svg xmlns="http://www.w3.org/2000/svg" xmlns:xlink="http://www.w3.org/1999/xlink" width="225" zoomAndPan="magnify" viewBox="0 0 168.75 37.5" height="50" preserveAspectRatio="xMidYMid meet" version="1.0"><defs><g/></defs><g fill="#8fd8ff" fill-opacity="1"><g transform="translate(72.514275, 29.22844)"><g><path d="M 11.992188 0.425781 C 16.773438 0.425781 20.152344 -3.042969 20.152344 -8.007812 C 20.152344 -12.90625 16.773438 -16.40625 11.992188 -16.40625 C 10.015625 -16.40625 8.28125 -15.800781 6.941406 -14.734375 L 6.941406 -22.527344 L 2.3125 -22.527344 L 2.3125 0 L 5.753906 0 L 6.269531 -1.828125 C 7.703125 -0.394531 9.679688 0.425781 11.992188 0.425781 Z M 6.757812 -8.007812 C 6.757812 -10.59375 8.585938 -12.449219 11.171875 -12.449219 C 13.789062 -12.449219 15.585938 -10.59375 15.585938 -8.007812 C 15.585938 -5.386719 13.789062 -3.5625 11.171875 -3.5625 C 8.585938 -3.5625 6.757812 -5.386719 6.757812 -8.007812 Z M 6.757812 -8.007812 "/></g></g></g><g fill="#8fd8ff" fill-opacity="1"><g transform="translate(92.633424, 29.22844)"><g><path d="M 2.3125 0 L 6.941406 0 L 6.941406 -22.527344 L 2.3125 -22.527344 Z M 2.3125 0 "/></g></g></g><g fill="#8fd8ff" fill-opacity="1"><g transform="translate(100.668814, 29.22844)"><g><path d="M 7.640625 0.304688 C 10.015625 0.304688 11.964844 -0.457031 13.332031 -1.855469 L 13.851562 0 L 17.289062 0 L 17.289062 -9.621094 C 17.289062 -13.851562 14.429688 -16.40625 9.648438 -16.40625 C 5.570312 -16.40625 2.890625 -14.460938 2.3125 -10.988281 L 6.757812 -10.988281 C 7.03125 -12.117188 8.1875 -12.875 9.679688 -12.875 C 11.507812 -12.875 12.753906 -11.839844 12.753906 -10.257812 L 12.753906 -9.527344 L 6.972656 -9.527344 C 3.652344 -9.527344 1.523438 -7.609375 1.523438 -4.65625 C 1.523438 -1.582031 3.867188 0.304688 7.640625 0.304688 Z M 6.089844 -4.839844 C 6.089844 -5.9375 7 -6.636719 8.402344 -6.636719 L 12.785156 -6.636719 C 12.695312 -4.476562 11.019531 -3.015625 8.707031 -3.015625 C 7.125 -3.015625 6.089844 -3.746094 6.089844 -4.839844 Z M 6.089844 -4.839844 "/></g></g></g><g fill="#8fd8ff" fill-opacity="1"><g transform="translate(118.748635, 29.22844)"><g><path d="M 1.15625 0 L 15.222656 0 L 15.222656 -3.804688 L 7.246094 -3.804688 L 15.039062 -12.847656 L 15.039062 -15.980469 L 1.429688 -15.980469 L 1.429688 -12.207031 L 9.042969 -12.207031 L 1.15625 -3.164062 Z M 1.15625 0 "/></g></g></g><g fill="#8fd8ff" fill-opacity="1"><g transform="translate(133.906445, 29.22844)"><g><path d="M 10.167969 0.425781 C 15.464844 0.425781 19.117188 -3.015625 19.117188 -8.007812 C 19.117188 -12.96875 15.464844 -16.40625 10.167969 -16.40625 C 4.839844 -16.40625 1.1875 -12.96875 1.1875 -8.007812 C 1.1875 -3.015625 4.839844 0.425781 10.167969 0.425781 Z M 5.753906 -8.007812 C 5.753906 -10.625 7.578125 -12.449219 10.167969 -12.449219 C 12.753906 -12.449219 14.550781 -10.625 14.550781 -8.007812 C 14.550781 -5.386719 12.753906 -3.5625 10.167969 -3.5625 C 7.578125 -3.5625 5.753906 -5.386719 5.753906 -8.007812 Z M 5.753906 -8.007812 "/></g></g></g><g fill="#8fd8ff" fill-opacity="1"><g transform="translate(152.990716, 29.22844)"><g><path d="M 2.3125 0 L 6.941406 0 L 6.941406 -7.0625 C 6.941406 -10.503906 8.554688 -11.78125 11.203125 -11.78125 L 12.96875 -11.78125 L 12.96875 -15.980469 L 11.234375 -15.980469 C 8.890625 -15.980469 7.398438 -15.34375 6.363281 -13.851562 L 5.753906 -15.980469 L 2.3125 -15.980469 Z M 2.3125 0 "/></g></g></g><g fill="#ffffff" fill-opacity="1"><g transform="translate(0.887142, 29.22844)"><g><path d="M 11.992188 0.425781 C 16.773438 0.425781 20.152344 -3.042969 20.152344 -8.007812 C 20.152344 -12.90625 16.773438 -16.40625 11.992188 -16.40625 C 9.679688 -16.40625 7.703125 -15.585938 6.269531 -14.15625 L 5.753906 -15.980469 L 2.3125 -15.980469 L 2.3125 6.089844 L 6.941406 6.089844 L 6.941406 -1.25 C 8.28125 -0.183594 10.015625 0.425781 11.992188 0.425781 Z M 6.757812 -8.007812 C 6.757812 -10.59375 8.585938 -12.449219 11.171875 -12.449219 C 13.789062 -12.449219 15.585938 -10.59375 15.585938 -8.007812 C 15.585938 -5.386719 13.789062 -3.5625 11.171875 -3.5625 C 8.585938 -3.5625 6.757812 -5.386719 6.757812 -8.007812 Z M 6.757812 -8.007812 "/></g></g></g><g fill="#ffffff" fill-opacity="1"><g transform="translate(21.006291, 29.22844)"><g><path d="M 8.675781 0.425781 C 10.777344 0.425781 12.664062 -0.304688 13.941406 -1.796875 L 14.429688 0 L 17.871094 0 L 17.871094 -15.980469 L 13.242188 -15.980469 L 13.242188 -7.640625 C 13.242188 -5.113281 11.871094 -3.5625 9.773438 -3.5625 C 7.824219 -3.5625 6.636719 -4.929688 6.636719 -7.277344 L 6.636719 -15.980469 L 2.007812 -15.980469 L 2.007812 -6.820312 C 2.007812 -2.375 4.535156 0.425781 8.675781 0.425781 Z M 8.675781 0.425781 "/></g></g></g><g fill="#ffffff" fill-opacity="1"><g transform="translate(39.968808, 29.22844)"><g><path d="M 2.3125 0 L 6.941406 0 L 6.941406 -7.0625 C 6.941406 -10.503906 8.554688 -11.78125 11.203125 -11.78125 L 12.96875 -11.78125 L 12.96875 -15.980469 L 11.234375 -15.980469 C 8.890625 -15.980469 7.398438 -15.34375 6.363281 -13.851562 L 5.753906 -15.980469 L 2.3125 -15.980469 Z M 2.3125 0 "/></g></g></g><g fill="#ffffff" fill-opacity="1"><g transform="translate(52.752472, 29.22844)"><g><path d="M 9.863281 0.425781 C 13.789062 0.425781 16.894531 -1.582031 18.296875 -4.960938 L 13.605469 -4.960938 C 12.847656 -3.898438 11.476562 -3.289062 9.953125 -3.289062 C 7.855469 -3.289062 6.210938 -4.476562 5.785156 -6.667969 L 18.601562 -6.667969 C 18.875 -12.511719 15.402344 -16.40625 9.925781 -16.40625 C 4.75 -16.40625 1.1875 -12.96875 1.1875 -8.007812 C 1.1875 -3.015625 4.71875 0.425781 9.863281 0.425781 Z M 5.8125 -9.589844 C 6.332031 -11.539062 7.914062 -12.722656 9.953125 -12.722656 C 12.085938 -12.722656 13.605469 -11.539062 14.125 -9.589844 Z M 5.8125 -9.589844 "/></g></g></g></svg>